<svg width="21" height="21" viewBox="0 0 21 21" fill="none" xmlns="http://www.w3.org/2000/svg">
<g id="skill-icons:linkedin" clip-path="url(#clip0_323_1626)">
<g id="Group">
<path id="Vector" d="M15.8258 0.5H5.20084C2.612 0.5 0.513336 2.59867 0.513336 5.1875V15.8125C0.513336 18.4013 2.612 20.5 5.20084 20.5H15.8258C18.4147 20.5 20.5133 18.4013 20.5133 15.8125V5.1875C20.5133 2.59867 18.4147 0.5 15.8258 0.5Z" fill="white"/>
<path id="Vector_2" d="M15.8258 0.5H5.20084C2.612 0.5 0.513336 2.59867 0.513336 5.1875V15.8125C0.513336 18.4013 2.612 20.5 5.20084 20.5H15.8258C18.4147 20.5 20.5133 18.4013 20.5133 15.8125V5.1875C20.5133 2.59867 18.4147 0.5 15.8258 0.5Z" fill="#0A66C2"/>
<path id="Vector_3" d="M14.9442 17.5066H17.2309C17.3138 17.5066 17.3933 17.4737 17.4519 17.4151C17.5105 17.3566 17.5434 17.2771 17.5434 17.1942L17.5446 12.3628C17.5446 9.83758 17.0004 7.89656 14.0494 7.89656C12.9276 7.85484 11.8697 8.43313 11.2989 9.39875C11.2961 9.40344 11.2918 9.40709 11.2868 9.40914C11.2817 9.41119 11.2761 9.41153 11.2709 9.4101C11.2656 9.40867 11.2609 9.40556 11.2576 9.40124C11.2543 9.39692 11.2524 9.39163 11.2524 9.38617V8.44219C11.2524 8.35931 11.2195 8.27982 11.1609 8.22122C11.1023 8.16261 11.0228 8.12969 10.9399 8.12969H8.76982C8.68694 8.12969 8.60746 8.16261 8.54885 8.22122C8.49024 8.27982 8.45732 8.35931 8.45732 8.44219V17.1937C8.45732 17.2766 8.49024 17.3561 8.54885 17.4147C8.60746 17.4733 8.68694 17.5062 8.76982 17.5062H11.0564C11.1393 17.5062 11.2187 17.4733 11.2774 17.4147C11.336 17.3561 11.3689 17.2766 11.3689 17.1937V12.8677C11.3689 11.6445 11.6009 10.4599 13.1174 10.4599C14.6123 10.4599 14.6317 11.8596 14.6317 12.947V17.1941C14.6317 17.277 14.6646 17.3565 14.7232 17.4151C14.7818 17.4737 14.8613 17.5066 14.9442 17.5066ZM3.48209 5.15844C3.48209 6.08531 4.24513 6.84797 5.17209 6.84797C6.0988 6.84789 6.86138 6.08477 6.86138 5.15805C6.86123 4.23133 6.09857 3.46875 5.17177 3.46875C4.24474 3.46875 3.48209 4.23156 3.48209 5.15844ZM4.02576 17.5066H6.31537C6.39825 17.5066 6.47773 17.4737 6.53634 17.4151C6.59494 17.3565 6.62787 17.277 6.62787 17.1941V8.44219C6.62787 8.35931 6.59494 8.27982 6.53634 8.22122C6.47773 8.16261 6.39825 8.12969 6.31537 8.12969H4.02576C3.94288 8.12969 3.86339 8.16261 3.80479 8.22122C3.74618 8.27982 3.71326 8.35931 3.71326 8.44219V17.1941C3.71326 17.277 3.74618 17.3565 3.80479 17.4151C3.86339 17.4737 3.94288 17.5066 4.02576 17.5066Z" fill="white"/>
</g>
</g>
<defs>
<clipPath id="clip0_323_1626">
<rect width="20" height="20" fill="white" transform="translate(0.513336 0.5)"/>
</clipPath>
</defs>
</svg>
